<svg width="46" height="39" viewBox="0 0 46 39" fill="none" xmlns="http://www.w3.org/2000/svg">
<path d="M23.163 0C25.4796 3.97965 27.8162 7.9476 30.1077 11.9423C26.4039 18.4759 22.7535 25.0412 18.9242 31.5029C17.4551 33.9833 16.026 36.4871 14.5735 38.9758C9.86348 39.0043 5.15342 39.0026 0.443359 38.9959C0.587101 38.6733 0.729172 38.3491 0.903 38.0415C8.31909 25.3588 15.7636 12.6928 23.163 0Z" fill="#AE285D"/>
<path d="M23.1641 24.2624C27.8908 24.2607 32.6176 24.2273 37.3444 24.3058C40.1591 29.2131 43.064 34.0669 45.8536 38.9876C41.1268 39.011 36.4017 38.9926 31.6749 38.9893C28.8619 34.0653 25.9236 29.2165 23.1641 24.2624Z" fill="#AE285D"/>
</svg>
