<svg width="48" height="41" viewBox="0 0 48 41" fill="none" xmlns="http://www.w3.org/2000/svg">
<path fill-rule="evenodd" clip-rule="evenodd" d="M0.853516 20.2703C0.853516 9.07489 11.4052 0 24.4232 0C37.4419 0 47.9936 9.07489 47.9936 20.2703C47.9936 31.4671 37.4419 40.5427 24.4232 40.5427C11.4052 40.5427 0.853516 31.4671 0.853516 20.2703Z" fill="#1F4578"/>
<path fill-rule="evenodd" clip-rule="evenodd" d="M21.5621 6.50834L27.037 4.69885L27.0639 34.3028L21.5425 36.1529L21.5621 6.50834Z" fill="#ED3338"/>
<path fill-rule="evenodd" clip-rule="evenodd" d="M24.8124 24.9713C22.4325 27.8384 20.1325 30.7697 15.8239 30.7697C9.73735 30.7697 6.85449 24.8862 6.85449 19.9672C6.85449 15.2415 9.10929 9.64673 15.0355 9.64673C17.6072 9.64673 20.0854 11.2198 21.5582 12.8825L21.5545 16.8951C20.3233 16.0647 17.5616 15.25 15.7587 15.2212C11.9996 15.1577 8.68382 16.7864 8.74341 20.4977C8.78202 23.0525 11.3119 24.7905 13.8306 24.7905C17.6886 24.7905 20.024 21.2666 21.9782 18.5913C22.5224 17.8932 24.0601 15.8381 24.2992 15.5094C26.4688 12.4791 28.9797 9.71024 33.2876 9.71024C38.3611 9.71024 41.2092 13.802 42.0161 18.0137H39.7279C38.8071 16.6482 37.0349 15.8126 35.287 15.8126C31.3 15.8126 28.9181 19.48 26.9253 22.1801C26.9253 22.1801 25.3737 24.2954 24.8124 24.9713ZM42.1488 22.3137C41.6347 26.5489 39.2607 30.8247 34.0733 30.8339C31.047 30.8395 28.6802 28.7657 27.041 26.2293V23.2922C29.0921 24.3105 31.0077 25.4002 33.3326 25.4356C36.1958 25.4781 38.7846 24.376 39.8554 22.3137H42.1488Z" fill="white"/>
</svg>
