<svg width="41" height="33" viewBox="0 0 41 33" fill="none" xmlns="http://www.w3.org/2000/svg">
<path d="M22.5753 32.9811L6.79297 33.0001V32.5817L18.4111 32.1254C20.6168 32.0493 22.7655 31.9352 24.8381 31.2127C29.0784 29.7866 32.4821 26.8963 33.4708 23.3215C34.5357 19.4805 32.0828 15.7536 27.4621 15.4303C31.3792 14.2894 34.7258 11.7985 35.6195 8.60397C36.7794 4.45873 34.6878 2.34808 31.151 1.58748C37.0266 1.49241 41.6092 3.46995 40.05 9.07934C39.1563 12.2738 35.7336 14.7078 31.8356 15.7726C36.4182 16.1149 38.9091 20.4693 37.7112 24.2722C36.4562 28.2273 33.2617 30.6803 29.0023 32.1064C26.9297 32.7719 24.8001 32.886 22.5753 32.9811Z" fill="#F15A29"/>
<path d="M14.3041 30.9844L6.85023 31.3457C6.85023 31.1556 6.83122 31.0985 6.81221 30.9084L25.6369 25.4701L25.656 25.1659L6.58403 29.7485C6.52698 29.5773 6.50797 29.5203 6.43191 29.3492L26.4546 18.2445L26.3215 17.9402L5.82343 28.4174C5.69033 28.2463 5.70934 28.2273 5.57624 28.0752L29.4019 5.61859L29.1927 5.37139L4.66352 27.3146C4.54943 27.2385 4.49239 27.1625 4.35929 27.0864L21.7769 1.70152L21.4727 1.60645L3.33248 26.611C3.23741 26.573 3.12332 26.554 3.02825 26.5159L12.992 1.96773L12.7258 1.9297L1.50706 26.2878C1.37395 26.2878 1.22183 26.2878 1.08873 26.3068H0.993652L8.21931 0.180333L21.7389 0.218366C28.1279 -0.142917 33.1858 1.58744 31.5125 7.53909C30.6188 10.7336 27.2722 13.2245 23.3742 14.2894L23.3552 14.3654C27.9758 14.6887 30.5808 18.4156 29.516 22.2566C28.5272 25.8314 24.9524 28.6266 20.7121 30.0527C18.6395 30.7943 16.5098 30.9084 14.3041 30.9844Z" fill="#F15A29"/>
</svg>
