<svg width="82" height="35" viewBox="0 0 82 35" fill="none" xmlns="http://www.w3.org/2000/svg">
<g id="Google_Pay_Logo 1">
<path id="Vector" d="M38.8 17.7V27H35.8V4H43.6C45.5 4 47.3001 4.7 48.7001 6C50.1 7.2 50.8 9 50.8 10.9C50.8 12.8 50.1 14.5 48.7001 15.8C47.3001 17.1 45.6 17.8 43.6 17.8L38.8 17.7ZM38.8 6.8V14.8H43.8C44.9 14.8 46.0001 14.4 46.7001 13.6C48.3001 12.1 48.3 9.6 46.8 8.1L46.7001 8C45.9001 7.2 44.9 6.7 43.8 6.8H38.8Z" fill="white"/>
<path id="Vector_2" d="M57.7001 10.8C59.9001 10.8 61.6001 11.4 62.9001 12.6C64.2001 13.8 64.8 15.4 64.8 17.4V27H62V24.8H61.9001C60.7001 26.6 59 27.5 57 27.5C55.3 27.5 53.8 27 52.6 26C51.5 25 50.8 23.6 50.8 22.1C50.8 20.5 51.4 19.2 52.6 18.2C53.8 17.2 55.5 16.8 57.5 16.8C59.3 16.8 60.7 17.1 61.8 17.8V17.1C61.8 16.1 61.4 15.1 60.6 14.5C59.8 13.8 58.8001 13.4 57.7001 13.4C56.0001 13.4 54.7 14.1 53.8 15.5L51.2001 13.9C52.8001 11.8 54.9001 10.8 57.7001 10.8ZM53.9001 22.2C53.9001 23 54.3001 23.7 54.9001 24.1C55.6001 24.6 56.4001 24.9 57.2001 24.9C58.4001 24.9 59.6 24.4 60.5 23.5C61.5 22.6 62 21.5 62 20.3C61.1 19.6 59.8 19.2 58.1 19.2C56.9 19.2 55.9 19.5 55.1 20.1C54.3 20.6 53.9001 21.3 53.9001 22.2Z" fill="white"/>
<path id="Vector_3" d="M81 11.3L71.1 34H68.1L71.8 26.1L65.3 11.4H68.5L73.2 22.7H73.3L77.9 11.4H81V11.3Z" fill="white"/>
<path id="Vector_4" d="M26.9 15.7C26.9 14.8 26.8 13.9 26.7 13H14.2V18.1H21.3C21 19.7 20.1 21.2 18.7 22.1V25.4H23C25.5 23.1 26.9 19.7 26.9 15.7Z" fill="#4285F4"/>
<path id="Vector_5" d="M14.1999 28.6C17.7999 28.6 20.7999 27.4 22.9999 25.4L18.6999 22.1C17.4999 22.9 15.9999 23.4 14.1999 23.4C10.7999 23.4 7.7999 21.1 6.7999 17.9H2.3999V21.3C4.6999 25.8 9.1999 28.6 14.1999 28.6Z" fill="#34A853"/>
<path id="Vector_6" d="M6.8001 17.9C6.2001 16.3 6.2001 14.5 6.8001 12.8V9.40002H2.4001C0.500098 13.1 0.500098 17.5 2.4001 21.3L6.8001 17.9Z" fill="#FBBC04"/>
<path id="Vector_7" d="M14.2 7.39996C16.1 7.39996 17.9 8.09996 19.3 9.39996L23.1 5.59996C20.7 3.39996 17.5 2.09996 14.3 2.19996C9.3 2.19996 4.7 4.99996 2.5 9.49996L6.9 12.9C7.8 9.69996 10.8 7.39996 14.2 7.39996Z" fill="#EA4335"/>
</g>
</svg>
