<svg width="36" height="38" viewBox="0 0 36 38" fill="none" xmlns="http://www.w3.org/2000/svg">
<path d="M10.2849 8.25414C18.9621 -0.35928 29.4889 -2.59475 33.7016 3.27615C37.9142 9.14705 34.2118 21.0132 25.5346 29.6266C16.8574 38.3038 6.33061 40.5361 2.05419 34.6014C-2.09147 28.6699 1.61092 16.8644 10.2849 8.25414Z" fill="#F06321"/>
<path d="M16.0284 3.6589C15.0717 4.36048 14.115 5.18961 13.1583 6.08571C5.56538 13.6117 2.3732 23.9471 6.13939 29.1165C10.0299 34.2826 19.3449 32.3692 27.1292 24.7763C31.3418 20.6944 34.1481 15.9715 35.2962 11.5707C35.615 8.318 35.1687 5.44473 33.7017 3.27623C30.3852 -1.31589 23.2387 -0.936409 16.0284 3.6589Z" fill="#AE282E"/>
<path d="M27.0014 4.61554V4.80688C26.9378 5.89113 26.2998 7.23049 25.1518 8.37853C23.4298 10.0368 21.1337 10.6746 20.1738 9.72108C19.0896 8.70061 19.7306 6.46515 21.4526 4.67932C23.2385 2.95728 25.5345 2.38326 26.4912 3.40373C26.8101 3.72263 27.0014 4.10531 27.0014 4.61554ZM20.3684 33.8999C16.2833 36.9613 12.0738 38.4952 7.98877 37.8574C9.71081 37.9212 11.1171 36.0046 12.2652 33.4534C13.4132 30.8385 14.051 28.4148 14.625 26.1156C15.4541 22.4802 15.5179 19.929 15.0715 19.355C14.3699 18.4589 12.8392 18.6534 11.0502 19.6739C10.1572 20.1841 9.00923 19.8652 10.3518 18.2069C11.7549 16.5487 17.1762 12.5912 19.0896 11.9534C21.2612 11.3793 23.6849 12.2085 22.8558 14.5683C22.2786 16.2904 14.7526 35.9408 20.3684 33.8999Z" fill="white"/>
</svg>
