<svg width="54" height="42" viewBox="0 0 54 42" fill="none" xmlns="http://www.w3.org/2000/svg">
<g clip-path="url(#clip0_354_11407)">
<path d="M9.78728 41.9079V39.1206C9.78728 38.0543 9.13876 37.3561 8.02547 37.3561C7.46883 37.3561 6.86354 37.5402 6.44741 38.1463C6.12315 37.6376 5.65838 37.3561 4.96122 37.3561C4.49645 37.3561 4.03168 37.4969 3.66418 38.0056V37.4482H2.69141V41.9079H3.66418V39.4453C3.66418 38.6551 4.08032 38.2817 4.72884 38.2817C5.37735 38.2817 5.70161 38.6984 5.70161 39.4453V41.9079H6.67439V39.4453C6.67439 38.6551 7.13916 38.2817 7.73904 38.2817C8.38756 38.2817 8.71182 38.6984 8.71182 39.4453V41.9079H9.78728ZM24.2168 37.4482H22.6388V36.1005H21.666V37.4482H20.7851V38.3304H21.666V40.3762C21.666 41.3992 22.0821 42 23.1954 42C23.6115 42 24.0763 41.8592 24.4006 41.6752L24.1195 40.8363C23.8385 41.0203 23.5143 41.069 23.2819 41.069C22.8171 41.069 22.6334 40.7876 22.6334 40.3275V38.3304H24.2114V37.4482H24.2168ZM32.4746 37.3507C31.918 37.3507 31.5451 37.6322 31.3127 38.0002V37.4427H30.3399V41.9025H31.3127V39.3912C31.3127 38.6497 31.637 38.2275 32.2422 38.2275C32.426 38.2275 32.6584 38.2762 32.8475 38.3195L33.1286 37.3886C32.934 37.3507 32.6584 37.3507 32.4746 37.3507ZM19.996 37.8162C19.5313 37.4914 18.8828 37.3507 18.1856 37.3507C17.0723 37.3507 16.3319 37.9082 16.3319 38.7904C16.3319 39.5319 16.8886 39.9541 17.8613 40.0894L18.3261 40.1381C18.8341 40.2301 19.1151 40.3708 19.1151 40.6036C19.1151 40.9283 18.7422 41.161 18.0937 41.161C17.4452 41.161 16.9318 40.9283 16.6075 40.6956L16.1428 41.4371C16.6508 41.8105 17.3479 41.9945 18.0451 41.9945C19.3421 41.9945 20.0879 41.3884 20.0879 40.5548C20.0879 39.7646 19.4826 39.3479 18.5585 39.2072L18.0937 39.1585C17.6776 39.1097 17.3533 39.0177 17.3533 38.7417C17.3533 38.417 17.6776 38.2329 18.191 38.2329C18.7477 38.2329 19.3043 38.4657 19.5853 38.6064L19.996 37.8162ZM45.8774 37.3507C45.3207 37.3507 44.9478 37.6322 44.7154 38.0002V37.4427H43.7426V41.9025H44.7154V39.3912C44.7154 38.6497 45.0397 38.2275 45.645 38.2275C45.8287 38.2275 46.0611 38.2762 46.2502 38.3195L46.5313 37.3994C46.3421 37.3507 46.0665 37.3507 45.8774 37.3507ZM33.4474 39.678C33.4474 41.0257 34.377 42 35.8145 42C36.463 42 36.9278 41.8592 37.3926 41.4912L36.9278 40.701C36.5549 40.9824 36.1874 41.1177 35.7659 41.1177C34.9768 41.1177 34.4202 40.5603 34.4202 39.678C34.4202 38.8391 34.9768 38.2817 35.7659 38.2384C36.182 38.2384 36.5549 38.3791 36.9278 38.6551L37.3926 37.8649C36.9278 37.4914 36.463 37.3561 35.8145 37.3561C34.377 37.3507 33.4474 38.3304 33.4474 39.678ZM42.4456 39.678V37.4482H41.4728V38.0056C41.1486 37.5889 40.6838 37.3561 40.0785 37.3561C38.8247 37.3561 37.8519 38.3304 37.8519 39.678C37.8519 41.0257 38.8247 42 40.0785 42C40.727 42 41.1918 41.7672 41.4728 41.3505V41.9079H42.4456V39.678ZM38.8733 39.678C38.8733 38.8878 39.3814 38.2384 40.219 38.2384C41.0081 38.2384 41.5647 38.8445 41.5647 39.678C41.5647 40.4683 41.0081 41.1177 40.219 41.1177C39.3868 41.069 38.8733 40.4628 38.8733 39.678ZM27.2324 37.3507C25.9354 37.3507 25.0059 38.2817 25.0059 39.6726C25.0059 41.069 25.9354 41.9945 27.2811 41.9945C27.9296 41.9945 28.5781 41.8105 29.0915 41.3884L28.6268 40.6902C28.2539 40.9716 27.7891 41.1556 27.3297 41.1556C26.7244 41.1556 26.1245 40.8742 25.984 40.0894H29.2753C29.2753 39.9487 29.2753 39.8567 29.2753 39.7159C29.3185 38.2817 28.4808 37.3507 27.2324 37.3507ZM27.2324 38.1896C27.8377 38.1896 28.2539 38.5631 28.3457 39.2559H26.0273C26.1191 38.6551 26.5353 38.1896 27.2324 38.1896ZM51.4006 39.678V35.6837H50.4278V38.0056C50.1035 37.5889 49.6388 37.3561 49.0335 37.3561C47.7797 37.3561 46.8069 38.3304 46.8069 39.678C46.8069 41.0257 47.7797 42 49.0335 42C49.682 42 50.1468 41.7672 50.4278 41.3505V41.9079H51.4006V39.678ZM47.8283 39.678C47.8283 38.8878 48.3363 38.2384 49.174 38.2384C49.963 38.2384 50.5197 38.8445 50.5197 39.678C50.5197 40.4683 49.963 41.1177 49.174 41.1177C48.3363 41.069 47.8283 40.4628 47.8283 39.678ZM15.2619 39.678V37.4482H14.2891V38.0056C13.9648 37.5889 13.5001 37.3561 12.8948 37.3561C11.641 37.3561 10.6682 38.3304 10.6682 39.678C10.6682 41.0257 11.641 42 12.8948 42C13.5433 42 14.0081 41.7672 14.2891 41.3505V41.9079H15.2619V39.678ZM11.6464 39.678C11.6464 38.8878 12.1544 38.2384 12.992 38.2384C13.7811 38.2384 14.3377 38.8445 14.3377 39.678C14.3377 40.4683 13.7811 41.1177 12.992 41.1177C12.1544 41.069 11.6464 40.4628 11.6464 39.678Z" fill="white"/>
<path d="M34.2852 3.57764H19.6719V29.8709H34.2852V3.57764Z" fill="#FF5A00"/>
<path d="M20.6445 16.7242C20.6445 11.3822 23.1521 6.64098 27 3.57758C24.1681 1.34768 20.5959 0 16.6994 0C7.46877 0 0 7.4799 0 16.7242C0 25.9686 7.46877 33.4485 16.6994 33.4485C20.5959 33.4485 24.1681 32.1008 27 29.8709C23.1467 26.8508 20.6445 22.0662 20.6445 16.7242Z" fill="#EB001B"/>
<path d="M54 16.7242C54 25.9686 46.5312 33.4485 37.3006 33.4485C33.4041 33.4485 29.8319 32.1008 27 29.8709C30.8965 26.8021 33.3555 22.0662 33.3555 16.7242C33.3555 11.3822 30.8479 6.64098 27 3.57758C29.8265 1.34768 33.3987 0 37.2952 0C46.5312 0 54 7.52861 54 16.7242Z" fill="#F79E1B"/>
</g>
<defs>
<clipPath id="clip0_354_11407">
<rect width="54" height="42" fill="white"/>
</clipPath>
</defs>
</svg>
