<svg width="89" height="28" viewBox="0 0 89 28" fill="none" xmlns="http://www.w3.org/2000/svg">
<g clip-path="url(#clip0_354_11364)">
<path d="M88.678 8.27043C87.8706 5.95658 85.6703 4.29502 83.0858 4.29502H83.0318C81.3517 4.29502 79.8376 4.99591 78.7598 6.12106C77.6802 4.99591 76.1661 4.29502 74.4879 4.29502H74.4338C72.957 4.29502 71.607 4.83704 70.5702 5.73417V5.27813C70.5348 4.82396 70.1618 4.46698 69.7013 4.46698H65.737C65.2522 4.46698 64.8606 4.85947 64.8606 5.34728V26.9251C64.8606 27.413 65.2522 27.8054 65.737 27.8054H69.7013C70.1432 27.8054 70.5068 27.4746 70.5646 27.0466L70.5627 11.5562C70.5627 11.502 70.5646 11.4515 70.5702 11.401C70.6336 10.7095 71.1389 10.1413 71.937 10.0703H72.0843H72.5001H72.6679C73.0017 10.1002 73.2833 10.218 73.5052 10.3955C73.8501 10.6703 74.0422 11.0927 74.0422 11.5562L74.0571 26.97C74.0571 27.4578 74.4506 27.8522 74.9335 27.8522H78.8978C79.3658 27.8522 79.7462 27.4784 79.7686 27.013L79.7667 11.5356C79.7649 11.0272 79.9998 10.5675 80.4119 10.2946C80.6151 10.1638 80.8594 10.0759 81.141 10.0497H81.2883H81.7041H81.8719C82.7297 10.1245 83.2481 10.7768 83.2462 11.5356L83.2611 26.9289C83.2611 27.4167 83.6546 27.8092 84.1375 27.8092H88.1018C88.5847 27.8092 88.9782 27.4167 88.9782 26.9289V10.3731C88.9782 9.24419 88.8514 8.76385 88.678 8.27043Z" fill="white"/>
<path d="M61.8406 4.52318H59.5732V0.841208C59.5732 0.837469 59.5732 0.833733 59.5732 0.829994C59.5732 0.387035 59.2151 0.0281849 58.7732 0.0281849C58.721 0.0281849 58.6707 0.0356598 58.6222 0.0450058C56.1086 0.736544 56.6121 4.22601 52.0231 4.52318H51.9206H51.5775C51.5103 4.52318 51.4469 4.53253 51.3854 4.54561C50.9938 4.63345 50.6992 4.98296 50.6992 5.40162V9.37516C50.6992 9.85924 51.0927 10.2536 51.5775 10.2536H53.9698L53.9661 27.1028C53.9661 27.5832 54.354 27.9719 54.8332 27.9719H58.7527C59.2301 27.9719 59.6179 27.5832 59.6179 27.1028L59.6198 10.2536H61.8406C62.3235 10.2536 62.717 9.85924 62.717 9.37516V5.40162C62.717 4.91755 62.3235 4.52318 61.8406 4.52318Z" fill="white"/>
<path d="M47.5774 4.52321H43.6132C43.1302 4.52321 42.7386 4.91758 42.7386 5.40165V13.6179C42.7293 14.1262 42.3191 14.5337 41.81 14.5337H40.1505C39.6358 14.5337 39.22 14.1188 39.22 13.6029L39.2051 5.40165C39.2051 4.91758 38.8117 4.52321 38.3287 4.52321H34.3644C33.8796 4.52321 33.488 4.91758 33.488 5.40165V14.4066C33.488 17.8269 35.9214 20.266 39.3356 20.266C39.3356 20.266 41.8977 20.266 41.976 20.2809C42.4384 20.3333 42.7983 20.722 42.7983 21.2005C42.7983 21.6734 42.4459 22.0602 41.989 22.1182C41.9667 22.1219 41.9462 22.1275 41.9219 22.1313L36.1247 22.1518C35.6399 22.1518 35.2483 22.5462 35.2483 23.0303V27.0019C35.2483 27.4879 35.6399 27.8804 36.1247 27.8804H42.6062C46.0223 27.8804 48.4538 25.4432 48.4538 22.021V5.40165C48.4538 4.91758 48.0623 4.52321 47.5774 4.52321Z" fill="white"/>
<path d="M9.20604 11.8039V13.658V14.2561C9.20604 14.7701 8.79022 15.1887 8.27744 15.1887L5.76201 15.1906V10.277H8.27744C8.79022 10.277 9.20604 10.6919 9.20604 11.2077V11.8039ZM9.55474 4.52224H0.88964C0.41415 4.52224 0.0300293 4.90913 0.0300293 5.38386V9.27703C0.0300293 9.28451 0.0318938 9.29198 0.0318938 9.29946C0.0318938 9.31815 0.0300293 9.33684 0.0300293 9.35366V21.8406V26.9748C0.0300293 27.4533 0.388045 27.8439 0.831835 27.8551H0.906421H4.8707C5.35365 27.8551 5.74709 27.4626 5.74709 26.9767L5.76201 20.9379H9.55474C12.7284 20.9379 14.9399 18.7305 14.9399 15.5364V9.93119C14.9399 6.73703 12.7284 4.52224 9.55474 4.52224Z" fill="white"/>
<path d="M25.6546 21.1326V21.7531C25.6546 21.8036 25.6471 21.8522 25.6396 21.8989C25.6303 21.9438 25.6173 21.9867 25.6023 22.0279C25.4793 22.3755 25.1324 22.6278 24.7204 22.6278H23.0701C22.5555 22.6278 22.1359 22.2353 22.1359 21.7531V21.0036C22.1359 20.9943 22.1341 20.9849 22.1341 20.9756L22.1359 18.9814V18.9776V18.7571V18.3571L22.1378 18.3515C22.1397 17.8712 22.5555 17.4824 23.0701 17.4824H24.7204C25.2369 17.4824 25.6546 17.873 25.6546 18.3571V21.1326ZM25.0243 4.54503H19.5235C19.0369 4.54503 18.6434 4.9151 18.6434 5.36927V6.91495C18.6434 6.9243 18.6453 6.93551 18.6453 6.94486C18.6453 6.95607 18.6434 6.96729 18.6434 6.9785V9.0961C18.6434 9.57644 19.0611 9.96893 19.5757 9.96893H24.8136C25.2275 10.0343 25.5557 10.3371 25.6023 10.81V11.3221C25.5557 11.7725 25.2313 12.1015 24.836 12.1389H22.2422C18.7926 12.1389 16.335 14.4359 16.335 17.6618V22.1643V22.282C16.335 25.4893 18.4476 27.7714 21.873 27.7714H29.0613C30.3516 27.7714 31.3977 26.792 31.3977 25.5865V10.5091C31.3977 6.85328 29.5181 4.54503 25.0243 4.54503Z" fill="white"/>
</g>
<defs>
<clipPath id="clip0_354_11364">
<rect width="89" height="28" fill="white"/>
</clipPath>
</defs>
</svg>
