<svg width="38" height="37" viewBox="0 0 38 37" fill="none" xmlns="http://www.w3.org/2000/svg">
<path d="M18.8574 37C29.0747 37 37.3574 28.7173 37.3574 18.5C37.3574 8.28273 29.0747 0 18.8574 0C8.64015 0 0.357422 8.28273 0.357422 18.5C0.357422 28.7173 8.64015 37 18.8574 37Z" fill="#5F259F"/>
<path d="M27.2538 13.6719C27.2538 12.9487 26.6336 12.3285 25.9104 12.3285H23.4302L17.746 5.81763C17.2294 5.19744 16.4026 4.99089 15.5759 5.19744L13.6123 5.81763C13.3022 5.92118 13.1987 6.33428 13.4058 6.54083L19.6066 12.4321H10.2007C9.89063 12.4321 9.68408 12.6386 9.68408 12.9487V13.982C9.68408 14.7052 10.3043 15.3254 11.0275 15.3254H12.4744V20.2864C12.4744 24.007 14.438 26.1777 17.7455 26.1777C18.7788 26.1777 19.606 26.0741 20.6393 25.661V28.9685C20.6393 29.8988 21.3625 30.622 22.2928 30.622H23.7397C24.0498 30.622 24.3599 30.3119 24.3599 30.0018V15.2224H26.7372C27.0472 15.2224 27.2538 15.0159 27.2538 14.7058V13.6719ZM20.6393 22.5601C20.0191 22.8702 19.1924 22.9737 18.5722 22.9737C16.9187 22.9737 16.092 22.147 16.092 20.2864V15.3254H20.6393V22.5601Z" fill="white"/>
</svg>
