<svg width="102" height="28" viewBox="0 0 102 28" fill="none" xmlns="http://www.w3.org/2000/svg">
<path d="M96.2245 3.00398L101.977 14.497L89.8848 25.9955L96.2245 3.00398Z" fill="#008C44"/>
<path d="M92.2416 3.00398L97.9851 14.497L85.9014 25.9955L92.2416 3.00398Z" fill="#F47920"/>
<path d="M0.0227051 21.8137L5.75765 1.02247H14.9263C17.7918 1.02247 19.706 1.47894 20.6798 2.4196C21.6467 3.3527 21.8329 4.8758 21.2501 7.01659C20.8976 8.27769 20.3619 9.33625 19.6259 10.1726C18.8958 11.0105 17.933 11.673 16.7474 12.1602C17.7533 12.4036 18.3931 12.8868 18.68 13.6113C18.9654 14.3358 18.9324 15.3923 18.5859 16.7774L17.8884 19.6815L17.8864 19.7601C17.6852 20.5733 17.7447 21.0086 18.0727 21.0439L17.8614 21.8137H11.6588C11.6798 21.3245 11.7184 20.8872 11.7595 20.5199C11.8045 20.144 11.8601 19.8528 11.9152 19.6528L12.4935 17.5765C12.7849 16.4968 12.8029 15.7435 12.5325 15.3097C12.2597 14.8643 11.6488 14.6452 10.6845 14.6452H8.07786L6.09011 21.8137H0.0227051ZM9.36765 9.96H12.1595C13.1379 9.96 13.8599 9.81943 14.305 9.52871C14.7521 9.23548 15.0841 8.74021 15.2788 8.02376C15.4806 7.29521 15.431 6.78735 15.1416 6.49865C14.8527 6.20542 14.1613 6.06283 13.0743 6.06283H10.4426L9.36765 9.96Z" fill="white"/>
<path d="M38.273 6.47138L34.0452 21.8137H28.9076L29.5389 19.5661C28.6347 20.4599 27.7094 21.1385 26.7766 21.5723C25.8513 22.0137 24.875 22.2308 23.8471 22.2308C22.9974 22.2308 22.2679 22.0757 21.6806 21.7678C21.0862 21.461 20.6436 20.9944 20.3457 20.3792C20.0813 19.8406 19.9662 19.1756 20.0112 18.381C20.0588 17.5991 20.3332 16.28 20.8419 14.433L23.0329 6.47138H28.6527L26.4662 14.3957C26.1467 15.5555 26.0706 16.3707 26.2264 16.8146C26.3886 17.2625 26.8217 17.4938 27.5247 17.4938C28.2326 17.4938 28.828 17.2358 29.3196 16.7093C29.8183 16.1873 30.2034 15.4089 30.4928 14.373L32.6613 6.47138H38.273Z" fill="white"/>
<path d="M36.2341 21.8137L41.9631 1.02247H49.844C51.5829 1.02247 52.9288 1.12575 53.8886 1.35248C54.8464 1.56963 55.5975 1.92232 56.1557 2.4196C56.8552 3.07005 57.2838 3.87518 57.46 4.84103C57.6258 5.80688 57.5276 6.93195 57.1646 8.253C56.5227 10.5772 55.3977 12.3582 53.7945 13.6027C52.1862 14.8311 50.1965 15.4483 47.8217 15.4483H44.1336L42.3816 21.8137H36.2341ZM45.53 10.3706H47.5118C48.793 10.3706 49.6938 10.2114 50.2215 9.90407C50.7322 9.5927 51.0952 9.03949 51.3165 8.253C51.5378 7.45594 51.4807 6.89869 51.1463 6.58732C50.8243 6.27747 50.0017 6.12077 48.6854 6.12077H46.7076L45.53 10.3706Z" fill="white"/>
<path d="M63.7758 21.8137L63.8329 20.3566C62.9266 21.0393 62.0088 21.5552 61.0861 21.8777C60.1673 22.2062 59.1889 22.3729 58.141 22.3729C56.5493 22.3729 55.4392 21.9376 54.7974 21.0952C54.1635 20.2513 54.0593 19.0396 54.4919 17.4938C54.906 15.9682 55.6425 14.8451 56.705 14.1272C57.7615 13.4006 59.5259 12.8807 62.0013 12.5481C62.3153 12.4968 62.7359 12.4554 63.2626 12.3915C65.0926 12.1783 66.12 11.6876 66.3413 10.887C66.4565 10.4487 66.3864 10.1252 66.116 9.92669C65.8552 9.72062 65.3675 9.61935 64.6635 9.61935C64.0792 9.61935 63.6091 9.74128 63.2235 9.99471C62.8385 10.2507 62.5511 10.6245 62.3563 11.1505H56.8772C57.3719 9.42336 58.3828 8.11843 59.9004 7.24579C61.4125 6.35803 63.4063 5.93078 65.8757 5.93078C67.0368 5.93078 68.0768 6.04011 68.996 6.27741C69.9168 6.50464 70.5897 6.82861 71.0263 7.22059C71.5636 7.70982 71.8815 8.26756 71.9721 8.88426C72.0768 9.49944 71.9621 10.3812 71.6417 11.5349L69.2849 20.0885C69.2093 20.3687 69.1948 20.6186 69.2359 20.8458C69.2849 21.0625 69.3791 21.2479 69.5453 21.3804L69.4186 21.8137H63.7758ZM65.1417 14.963C64.5449 15.2044 63.7693 15.4356 62.8055 15.6896C61.2919 16.0982 60.4402 16.6433 60.2559 17.3179C60.1282 17.7518 60.1798 18.0858 60.3906 18.3397C60.5984 18.5811 60.9594 18.703 61.4681 18.703C62.4009 18.703 63.1499 18.4657 63.7082 17.9971C64.268 17.5225 64.6866 16.7773 64.9795 15.7495C65.0305 15.5308 65.0756 15.3737 65.1046 15.2563L65.1417 14.963Z" fill="white"/>
<path d="M69.4614 27.8593L70.7087 23.3182H72.3169C72.8541 23.3182 73.2767 23.2114 73.5761 23.0169C73.88 22.8149 74.0868 22.4743 74.206 22.0158C74.2656 21.8138 74.3021 21.6012 74.3272 21.3598C74.3432 21.1039 74.3432 20.8333 74.3272 20.5199L73.469 6.47149H79.1574L79.0692 15.7803L84.0351 6.47149H89.3249L80.5458 21.7397C79.5494 23.4462 78.8254 24.6186 78.3658 25.2585C77.9121 25.8903 77.4815 26.3815 77.0635 26.7141C76.5217 27.1741 75.9169 27.5001 75.264 27.69C74.6096 27.884 73.6132 27.9807 72.2738 27.9807C71.8883 27.9807 71.4447 27.9732 70.965 27.948C70.4888 27.9293 69.9806 27.9006 69.4614 27.8593Z" fill="white"/>
</svg>
