<svg width="82" height="27" viewBox="0 0 82 27" fill="none" xmlns="http://www.w3.org/2000/svg">
<path d="M35.5332 26.2563H28.8906L33.0454 0.467529H39.6876L35.5332 26.2563Z" fill="white"/>
<path d="M59.6134 1.09793C58.3032 0.576131 56.2251 0 53.6555 0C47.0958 0 42.4765 3.51148 42.4481 8.53183C42.3936 12.2358 45.7554 14.2931 48.2698 15.5282C50.8397 16.7902 51.7133 17.6139 51.7133 18.7388C51.6871 20.4665 49.6366 21.2628 47.7242 21.2628C45.0722 21.2628 43.6512 20.8523 41.4917 19.8911L40.617 19.479L39.6875 25.268C41.2454 25.9806 44.1158 26.6128 47.0958 26.6406C54.0656 26.6406 58.6032 23.1834 58.657 17.8334C58.6835 14.8977 56.9083 12.6482 53.0812 10.8101C50.758 9.63013 49.3352 8.83448 49.3352 7.62716C49.3624 6.5296 50.5386 5.40541 53.1612 5.40541C55.3206 5.35035 56.9073 5.87142 58.1092 6.39286L58.71 6.6667L59.6134 1.09793Z" fill="white"/>
<path d="M68.4417 17.1202C68.9887 15.6387 71.0937 9.90476 71.0937 9.90476C71.0661 9.95982 71.6397 8.39588 71.9677 7.43579L72.4319 9.6579C72.4319 9.6579 73.6898 15.8309 73.963 17.1202C72.9248 17.1202 69.7537 17.1202 68.4417 17.1202ZM76.6411 0.467529H71.5031C69.9186 0.467529 68.7149 0.933538 68.0312 2.60723L58.1646 26.2559H65.1344C65.1344 26.2559 66.2819 23.073 66.5285 22.3875C67.2931 22.3875 74.0734 22.3875 75.057 22.3875C75.2477 23.2929 75.8496 26.2559 75.8496 26.2559H82L76.6411 0.467529Z" fill="white"/>
<path d="M23.3423 0.467529L16.837 18.053L16.1262 14.4865C14.9235 10.3711 11.1516 5.89993 6.94238 3.67672L12.901 26.2289H19.9253L30.3663 0.467529H23.3423Z" fill="white"/>
<path d="M10.7966 0.467529H0.109335L0 0.988598C8.33672 3.12867 13.858 8.28722 16.1264 14.4875L13.8031 2.63531C13.4206 0.988234 12.2452 0.521861 10.7966 0.467529Z" fill="white"/>
</svg>
