<svg width="92" height="35" viewBox="0 0 92 35" fill="none" xmlns="http://www.w3.org/2000/svg">
<g clip-path="url(#clip0_354_11427)">
<path d="M67.4172 12.3759C67.6127 12.4407 67.7509 12.5963 67.8878 12.7416C69.82 14.7646 71.7651 16.7733 73.6933 18.7989C73.6972 16.772 73.6881 14.7451 73.6972 12.7182C74.22 12.7169 74.7415 12.726 75.2643 12.7091C75.3138 12.892 75.3347 13.0787 75.3295 13.2681C75.3191 16.3506 75.3334 19.4331 75.323 22.5156C75.2839 22.5338 75.2069 22.5688 75.1691 22.5869C73.0923 20.4861 71.082 18.3191 69.009 16.2157C68.9895 18.2361 69.0325 20.2592 68.9882 22.2809C68.4615 22.2575 67.9348 22.2692 67.4094 22.2718C67.4107 18.9727 67.3963 15.6736 67.4172 12.3759Z" fill="white"/>
<path d="M26.0123 12.6235C27.2287 12.1826 28.5376 12.499 29.7227 12.8789C29.737 13.6298 29.7292 14.3793 29.7292 15.1302C29.0017 14.6893 28.2143 14.2484 27.3421 14.2237C26.9014 14.1952 26.3604 14.4636 26.3526 14.9551C26.3226 15.3143 26.6107 15.5893 26.8845 15.7734C27.9405 16.4309 29.1686 16.8939 29.9808 17.8742C30.969 19.2203 30.445 21.3717 28.9509 22.1291C27.5728 22.8566 25.9315 22.5596 24.5104 22.12C24.4283 21.2745 24.3748 20.4277 24.3409 19.5796C25.1636 20.0905 26.0749 20.5677 27.0709 20.5509C27.4946 20.5223 27.9939 20.3939 28.2025 19.9855C28.4203 19.6185 28.2547 19.1335 27.9301 18.8871C26.9992 18.1466 25.7946 17.7861 24.9758 16.9016C24.4452 16.3505 24.1766 15.5685 24.251 14.8099C24.3057 13.8049 25.0671 12.9321 26.0123 12.6235Z" fill="white"/>
<path d="M60.6405 13.4768C60.8322 13.0995 60.9677 12.6923 61.2246 12.3512C62.7695 15.6425 64.2583 18.9597 65.772 22.2666C65.1944 22.2705 64.6156 22.2614 64.038 22.2757C63.7668 21.7142 63.5165 21.1436 63.2675 20.573C61.823 20.5652 60.3785 20.5704 58.9339 20.5704C58.6784 21.1397 58.4281 21.7116 58.1504 22.2718C57.5885 22.264 57.0279 22.2692 56.4673 22.2666C57.8727 19.3449 59.2442 16.405 60.6405 13.4768ZM61.0277 15.8694C60.5349 16.973 60.0669 18.0883 59.5558 19.1828C60.5897 19.2295 61.6274 19.1932 62.6626 19.1996C62.1659 18.0325 61.6496 16.8732 61.1542 15.7047C61.1229 15.7462 61.059 15.8279 61.0277 15.8694Z" fill="white"/>
<path d="M6.04443 12.7195C6.9427 12.7143 7.83966 12.7285 8.73663 12.7117C9.43673 13.7076 10.069 14.7477 10.76 15.7501C11.4823 14.7321 12.2111 13.7167 12.9581 12.7169C13.7481 12.7246 14.5382 12.713 15.3283 12.7233C14.1314 14.3936 12.8421 16.003 11.6752 17.6901C11.6544 19.2139 11.67 20.7402 11.6687 22.2653C10.9191 22.2704 10.1694 22.2679 9.41978 22.2666C9.40804 20.7532 9.44455 19.2359 9.40283 17.7238C8.30509 16.0432 7.13826 14.4053 6.04443 12.7195Z" fill="white"/>
<path d="M16.311 22.2692C16.3163 19.0855 16.3045 15.9006 16.3176 12.7169C18.264 12.7221 20.2105 12.7182 22.1569 12.7195C22.1622 13.3692 22.1504 14.0202 22.1661 14.6699C20.9497 14.7179 19.7255 14.6271 18.5065 14.7114C18.5091 15.2846 18.5052 15.8578 18.5117 16.4297C19.5547 16.4258 20.599 16.4167 21.642 16.4362C21.6289 17.0807 21.6381 17.7265 21.6368 18.3736C20.5925 18.3723 19.5495 18.3736 18.5065 18.371C18.5104 18.9987 18.5078 19.6276 18.5078 20.2553C19.7385 20.2566 20.9692 20.2449 22.2 20.2592C22.2026 20.9296 22.2078 21.6001 22.1974 22.2718C20.2352 22.2653 18.2731 22.2679 16.311 22.2692Z" fill="white"/>
<path d="M49.1704 12.7182C50.3842 12.7454 51.6019 12.6573 52.8104 12.7856C53.5927 12.8764 54.444 13.1863 54.8534 13.9035C55.2901 14.6958 55.2966 15.7839 54.6956 16.4971C54.4336 16.82 54.045 16.9925 53.6813 17.1753C54.3801 17.366 55.002 17.8704 55.2262 18.5694C55.4909 19.4292 55.4179 20.4485 54.8599 21.1812C54.2393 21.9696 53.182 22.1927 52.2303 22.2536C51.2081 22.2822 50.1873 22.2614 49.1665 22.2692C49.1743 19.0855 49.1639 15.9019 49.1704 12.7182ZM50.7662 13.9956C50.7714 14.8929 50.7688 15.7916 50.7688 16.6903C51.4832 16.6709 52.2733 16.7993 52.9147 16.4063C53.6774 15.981 53.7674 14.6556 52.9603 14.2316C52.2837 13.8931 51.4963 14.0163 50.7662 13.9956ZM50.7675 17.9651C50.7714 18.9559 50.7688 19.9479 50.7701 20.9387C51.4989 20.9127 52.2785 21.045 52.9643 20.7325C53.8795 20.3162 54.002 18.8638 53.195 18.2867C52.4845 17.7978 51.5745 18.0092 50.7675 17.9651Z" fill="white"/>
<path d="M78.3504 22.2705C78.3544 19.0856 78.327 15.8993 78.3635 12.7144C78.9006 12.7221 79.4378 12.7195 79.9749 12.7169C79.997 14.1434 79.9749 15.5699 79.9827 16.9964C81.3347 15.5699 82.6827 14.1408 84.0412 12.7208C84.6787 12.7169 85.3176 12.7195 85.9564 12.7182C84.5223 14.2563 83.0686 15.7774 81.6228 17.3064C83.2238 18.9533 84.8065 20.6184 86.4101 22.2615C85.6969 22.2757 84.9851 22.2628 84.272 22.2718C82.847 20.7792 81.4168 19.2918 79.9853 17.8069C79.9775 19.2931 79.9879 20.7792 79.9814 22.2666C79.4378 22.2705 78.8941 22.2654 78.3504 22.2705Z" fill="white"/>
<path d="M49.5196 2.65627C49.9864 2.04677 50.4153 1.40615 50.9159 0.821289C46.0296 9.41135 41.1784 18.0235 36.3025 26.62C35.0874 28.7883 33.8424 30.941 32.6403 33.1157C32.5347 33.06 32.4395 32.9899 32.3561 32.9056C30.6404 31.1666 28.9156 29.438 27.1973 27.7015C28.4176 27.6886 29.6365 27.7002 30.8568 27.6951C37.0782 19.3501 43.2996 11.0038 49.5196 2.65627Z" fill="#C4261B"/>
<path d="M1.2961 7.93176C15.8783 7.91101 30.4591 7.93306 45.0413 7.92139C40.1914 14.2926 35.3755 20.6898 30.5035 27.0441C20.7711 27.0363 11.0388 27.0389 1.30653 27.048C1.28437 20.6755 1.30523 14.3043 1.2961 7.93176ZM26.0121 12.6236C25.0669 12.9323 24.3055 13.805 24.2508 14.81C24.1765 15.5687 24.445 16.3506 24.9757 16.9018C25.7944 17.7862 26.999 18.1467 27.9299 18.8872C28.2545 19.1336 28.4201 19.6186 28.2024 19.9856C27.9938 20.3941 27.4945 20.5225 27.0707 20.551C26.0747 20.5679 25.1634 20.0906 24.3407 19.5797C24.3746 20.4278 24.4281 21.2746 24.5102 22.1201C25.9313 22.5598 27.5727 22.8567 28.9507 22.1292C30.4448 21.3719 30.9689 19.2205 29.9807 17.8744C29.1684 16.894 27.9403 16.431 26.8843 15.7736C26.6105 15.5894 26.3224 15.3145 26.3524 14.9553C26.3602 14.4638 26.9013 14.1953 27.3419 14.2239C28.2141 14.2485 29.0016 14.6894 29.729 15.1303C29.729 14.3795 29.7369 13.6299 29.7225 12.8791C28.5374 12.4991 27.2285 12.1827 26.0121 12.6236ZM6.04427 12.7196C7.13809 14.4054 8.30493 16.0433 9.40267 17.724C9.44438 19.236 9.40788 20.7533 9.41961 22.2667C10.1693 22.268 10.9189 22.2706 11.6685 22.2654C11.6698 20.7403 11.6542 19.214 11.6751 17.6902C12.8419 16.0031 14.1313 14.3938 15.3281 12.7235C14.538 12.7131 13.748 12.7248 12.9579 12.717C12.2109 13.7168 11.4821 14.7322 10.7598 15.7502C10.0689 14.7478 9.43656 13.7077 8.73646 12.7118C7.8395 12.7287 6.94254 12.7144 6.04427 12.7196ZM16.3111 22.2693C18.2732 22.268 20.2353 22.2654 22.1974 22.2719C22.2079 21.6001 22.2026 20.9297 22.2 20.2592C20.9693 20.245 19.7386 20.2566 18.5079 20.2553C18.5079 19.6277 18.5105 18.9987 18.5066 18.3711C19.5496 18.3737 20.5925 18.3724 21.6368 18.3737C21.6381 17.7266 21.629 17.0807 21.642 16.4362C20.5991 16.4168 19.5548 16.4259 18.5118 16.4297C18.5053 15.8579 18.5092 15.2847 18.5066 14.7115C19.7256 14.6272 20.9498 14.718 22.1661 14.67C22.1505 14.0203 22.1622 13.3693 22.157 12.7196C20.2105 12.7183 18.2641 12.7222 16.3176 12.717C16.3046 15.9006 16.3163 19.0856 16.3111 22.2693Z" fill="#005192"/>
<path d="M44.2458 13.4821C45.2979 11.6341 46.2796 9.74467 47.363 7.91746C62.0873 7.92654 76.8128 7.93303 91.5371 7.91357C91.584 14.29 91.5501 20.669 91.5541 27.0467C73.281 27.035 55.0093 27.0441 36.7363 27.0428C39.2225 22.513 41.7478 18.0053 44.2458 13.4821ZM67.4169 12.3759C67.396 15.6737 67.4104 18.9728 67.4091 22.2718C67.9345 22.2692 68.4612 22.2576 68.9879 22.2809C69.0322 20.2592 68.9892 18.2362 69.0087 16.2157C71.0817 18.3192 73.092 20.4861 75.1688 22.587C75.2066 22.5688 75.2836 22.5338 75.3227 22.5156C75.3331 19.4331 75.3188 16.3506 75.3292 13.2681C75.3344 13.0788 75.3135 12.892 75.264 12.7092C74.7412 12.726 74.2197 12.717 73.6969 12.7182C73.6878 14.7452 73.6969 16.7721 73.693 18.799C71.7648 16.7734 69.8196 14.7646 67.8875 12.7416C67.7506 12.5963 67.6124 12.4407 67.4169 12.3759ZM60.6401 13.4769C59.2438 16.4051 57.8723 19.3449 56.4669 22.2667C57.0275 22.2692 57.5881 22.2641 58.15 22.2718C58.4277 21.7116 58.678 21.1397 58.9335 20.5704C60.3781 20.5704 61.8226 20.5652 63.2671 20.573C63.5161 21.1436 63.7665 21.7142 64.0376 22.2757C64.6152 22.2615 65.194 22.2705 65.7716 22.2667C64.258 18.9598 62.7691 15.6426 61.2242 12.3513C60.9674 12.6923 60.8318 13.0995 60.6401 13.4769ZM49.17 12.7182C49.1634 15.9019 49.1739 19.0856 49.166 22.2692C50.1869 22.2615 51.2077 22.2822 52.2298 22.2537C53.1815 22.1927 54.2388 21.9697 54.8594 21.1812C55.4174 20.4485 55.4904 19.4292 55.2258 18.5695C55.0015 17.8705 54.3796 17.366 53.6808 17.1754C54.0446 16.9925 54.4331 16.8201 54.6951 16.4972C55.2962 15.7839 55.2896 14.6959 54.8529 13.9035C54.4435 13.1864 53.5922 12.8765 52.81 12.7857C51.6014 12.6573 50.3837 12.7455 49.17 12.7182ZM78.3499 22.2705C78.8936 22.2654 79.4372 22.2705 79.9809 22.2667C79.9874 20.7792 79.977 19.2931 79.9848 17.8069C81.4163 19.2918 82.8465 20.7792 84.2714 22.2718C84.9846 22.2628 85.6964 22.2757 86.4095 22.2615C84.806 20.6184 83.2233 18.9533 81.6223 17.3064C83.0681 15.7774 84.5218 14.2563 85.9559 12.7182C85.317 12.7195 84.6782 12.717 84.0407 12.7208C82.6822 14.1408 81.3341 15.5699 79.9822 16.9964C79.9744 15.5699 79.9965 14.1434 79.9744 12.717C79.4372 12.7195 78.9001 12.7221 78.363 12.7144C78.3265 15.8993 78.3538 19.0856 78.3499 22.2705Z" fill="#005192"/>
<path d="M50.7661 13.9956C51.4962 14.0163 52.2837 13.8931 52.9603 14.2316C53.7673 14.6557 53.6773 15.981 52.9147 16.4064C52.2732 16.7993 51.4832 16.6709 50.7687 16.6904C50.7687 15.7917 50.7713 14.893 50.7661 13.9956Z" fill="#005192"/>
<path d="M61.0276 15.8695C61.0589 15.828 61.1227 15.7463 61.154 15.7048C61.6494 16.8733 62.1657 18.0326 62.6624 19.1997C61.6273 19.1932 60.5895 19.2296 59.5557 19.1829C60.0667 18.0884 60.5348 16.9731 61.0276 15.8695Z" fill="#005192"/>
<path d="M50.7671 17.9651C51.5741 18.0092 52.4841 17.7979 53.1946 18.2868C54.0016 18.8638 53.8791 20.3163 52.9639 20.7325C52.2781 21.0451 51.4985 20.9128 50.7697 20.9387C50.7684 19.948 50.771 18.9559 50.7671 17.9651Z" fill="#005192"/>
</g>
<defs>
<clipPath id="clip0_354_11427">
<rect width="91" height="35" fill="white" transform="translate(0.993652)"/>
</clipPath>
</defs>
</svg>
