<svg width="20" height="20" viewBox="0 0 20 20" fill="none" xmlns="http://www.w3.org/2000/svg">
<path fill-rule="evenodd" clip-rule="evenodd" d="M0 2C0 0.895431 0.895431 0 2 0H18C19.1046 0 20 0.895431 20 2V18C20 19.1046 19.1046 20 18 20H2C0.895431 20 0 19.1046 0 18V2ZM12.9166 4.16656C13.6895 4.16887 14.43 4.47692 14.9766 5.02345C15.5231 5.56997 15.8311 6.31054 15.8334 7.08344V12.9166C15.8311 13.6895 15.5231 14.43 14.9766 14.9766C14.43 15.5231 13.6895 15.8311 12.9166 15.8334H7.08344C6.31054 15.8311 5.56997 15.5231 5.02345 14.9766C4.47692 14.43 4.16887 13.6895 4.16656 12.9166V7.08344C4.16887 6.31054 4.47692 5.56997 5.02345 5.02345C5.56997 4.47692 6.31054 4.16887 7.08344 4.16656H12.9166ZM12.9166 3H7.08344C4.8375 3 3 4.8375 3 7.08344V12.9166C3 15.1625 4.8375 17 7.08344 17H12.9166C15.1625 17 17 15.1625 17 12.9166V7.08344C17 4.8375 15.1625 3 12.9166 3ZM13.3054 6.93597C13.4493 7.03212 13.6185 7.08344 13.7916 7.08344C13.9065 7.08368 14.0204 7.06122 14.1267 7.01733C14.233 6.97345 14.3295 6.90901 14.4108 6.82771C14.4921 6.7464 14.5566 6.64985 14.6005 6.54358C14.6443 6.4373 14.6668 6.32341 14.6666 6.20844C14.6666 6.03538 14.6152 5.8662 14.5191 5.72231C14.423 5.57842 14.2863 5.46627 14.1264 5.40004C13.9665 5.33381 13.7906 5.31649 13.6209 5.35025C13.4511 5.38401 13.2952 5.46735 13.1728 5.58972C13.0505 5.71209 12.9671 5.868 12.9334 6.03773C12.8996 6.20746 12.9169 6.3834 12.9832 6.54328C13.0494 6.70317 13.1615 6.83983 13.3054 6.93597ZM11.2964 8.05982C10.9127 7.80341 10.4615 7.66656 10 7.66656C9.38134 7.66722 8.7882 7.91328 8.35074 8.35074C7.91328 8.7882 7.66723 9.38133 7.66656 10C7.66656 10.4615 7.80342 10.9127 8.05982 11.2964C8.31622 11.6801 8.68065 11.9792 9.10703 12.1558C9.53341 12.3324 10.0026 12.3786 10.4552 12.2886C10.9079 12.1986 11.3237 11.9763 11.65 11.65C11.9763 11.3236 12.1986 10.9079 12.2886 10.4552C12.3786 10.0026 12.3324 9.53341 12.1558 9.10703C11.9792 8.68065 11.6801 8.31622 11.2964 8.05982ZM8.05551 7.08985C8.63108 6.70527 9.30777 6.5 10 6.5C10.9283 6.5 11.8185 6.86875 12.4749 7.52512C13.1313 8.1815 13.5 9.07174 13.5 10C13.5 10.6922 13.2947 11.3689 12.9101 11.9445C12.5256 12.5201 11.9789 12.9687 11.3394 13.2336C10.6999 13.4985 9.99612 13.5678 9.31719 13.4327C8.63825 13.2977 8.01461 12.9644 7.52513 12.4749C7.03564 11.9854 6.7023 11.3617 6.56725 10.6828C6.4322 10.0039 6.50152 9.30015 6.76642 8.66061C7.03133 8.02106 7.47993 7.47444 8.05551 7.08985Z" fill="white"/>
</svg>
